<?xml version="1.0" encoding="utf-8"?>
<!-- Generator: Adobe Illustrator 25.2.1, SVG Export Plug-In . SVG Version: 6.00 Build 0)  -->
<svg version="1.1" id="Layer_1" xmlns="http://www.w3.org/2000/svg" xmlns:xlink="http://www.w3.org/1999/xlink" x="0px" y="0px"
	 viewBox="0 0 141 125" style="enable-background:new 0 0 141 125;" xml:space="preserve">
<style type="text/css">
	.st0{fill:#231F20;}
	.st1{fill:#8BC53F;}
</style>
<g>
	<g>
		<g>
			<path class="st0" d="M91.31,46.06l-1.78-0.94l2.25-4.25L81.25,35.3L79,39.54l-1.78-0.94c-1.78-0.94-3.95-0.34-4.85,1.35
				L51.21,79.91c-0.89,1.69-0.17,3.83,1.61,4.77l14.08,7.46c1.78,0.94,3.95,0.34,4.85-1.35l21.16-39.96
				C93.81,49.14,93.08,47,91.31,46.06z M70.82,84.9l-1.22,2.3c-0.51,0.97-1.73,1.35-2.7,0.83l-10.53-5.58
				c-0.97-0.51-1.35-1.73-0.83-2.7l1.22-2.3c0.51-0.97,1.73-1.35,2.7-0.83l10.53,5.58C70.96,82.72,71.33,83.93,70.82,84.9z
				 M74.69,77.59l-1.22,2.3c-0.51,0.97-1.73,1.35-2.7,0.83l-10.53-5.58c-0.97-0.51-1.35-1.73-0.83-2.7l1.22-2.3
				c0.51-0.97,1.73-1.35,2.7-0.83l10.53,5.58C74.83,75.4,75.21,76.61,74.69,77.59z M78.57,70.27l-1.22,2.3
				c-0.51,0.97-1.73,1.35-2.7,0.83l-10.53-5.58c-0.97-0.51-1.35-1.73-0.83-2.7l1.22-2.3c0.51-0.97,1.73-1.35,2.7-0.83l10.53,5.58
				C78.71,68.08,79.09,69.29,78.57,70.27z M82.45,62.95l-1.22,2.3c-0.51,0.97-1.73,1.35-2.7,0.83L67.99,60.5
				c-0.97-0.51-1.35-1.73-0.83-2.7l1.22-2.3c0.51-0.97,1.73-1.35,2.7-0.83l10.53,5.58C82.59,60.76,82.96,61.97,82.45,62.95z"/>
		</g>
	</g>
	<g>
		<g>
			<path class="st1" d="M71.98,108.52c-22.33,0-41.67-16.63-44.98-38.68l-0.2-1.33l11.3,1.25l-9.31-11.63v0l-7.78-9.71L-0.32,65.51
				l13.15,1.45l0.07,0.85c2.44,30.57,28.39,54.51,59.08,54.51c32.09,0,58.31-25.63,59.26-57.5l-6.07,7.58
				c-0.26,0.33-0.65,0.51-1.07,0.51h0c-0.12,0-0.23-0.03-0.34-0.06c-0.02,0-0.03,0-0.05-0.01c-0.17-0.05-0.33-0.12-0.47-0.23
				l-6.04-4.84C114.83,90.78,95.33,108.52,71.98,108.52z"/>
		</g>
		<g>
			<path class="st1" d="M71.98,16.52c20.34,0,38.35,13.68,43.81,33.26l0.33,1.18l-13.45,1.49l12.76,10.22v0l8.58,6.87l17.09-21.34
				l-11.17,1.24l-0.21-0.9C123.44,21.55,99.7,2.71,71.98,2.71c-28.22,0-52.76,20.36-58.17,47.79l6.46-5.18
				c0.28-0.23,0.65-0.32,1-0.28c0.35,0.04,0.69,0.21,0.92,0.49l5.36,6.7C32.08,31.41,50.42,16.52,71.98,16.52z"/>
		</g>
	</g>
</g>
</svg>
